<svg xmlns="http://www.w3.org/2000/svg" xmlns:xlink="http://www.w3.org/1999/xlink" width="500" zoomAndPan="magnify" viewBox="0 0 375 374.999991" height="500" preserveAspectRatio="xMidYMid meet" version="1.0"><defs><g/><clipPath id="1097e7642a"><path d="M 71.617188 71.617188 L 303.382812 71.617188 L 303.382812 303.382812 L 71.617188 303.382812 Z M 71.617188 71.617188 " clip-rule="nonzero"/></clipPath><clipPath id="46b8e396ce"><path d="M 187.5 71.617188 C 123.5 71.617188 71.617188 123.5 71.617188 187.5 C 71.617188 251.5 123.5 303.382812 187.5 303.382812 C 251.5 303.382812 303.382812 251.5 303.382812 187.5 C 303.382812 123.5 251.5 71.617188 187.5 71.617188 Z M 187.5 71.617188 " clip-rule="nonzero"/></clipPath><clipPath id="737ae198d0"><path d="M 0.617188 0.617188 L 232.382812 0.617188 L 232.382812 232.382812 L 0.617188 232.382812 Z M 0.617188 0.617188 " clip-rule="nonzero"/></clipPath><clipPath id="eedd2c07fa"><path d="M 116.5 0.617188 C 52.5 0.617188 0.617188 52.5 0.617188 116.5 C 0.617188 180.5 52.5 232.382812 116.5 232.382812 C 180.5 232.382812 232.382812 180.5 232.382812 116.5 C 232.382812 52.5 180.5 0.617188 116.5 0.617188 Z M 116.5 0.617188 " clip-rule="nonzero"/></clipPath><clipPath id="33e7a83aa0"><rect x="0" width="233" y="0" height="233"/></clipPath><clipPath id="5400b4f540"><path d="M 71.617188 71.617188 L 303.367188 71.617188 L 303.367188 303.367188 L 71.617188 303.367188 Z M 71.617188 71.617188 " clip-rule="nonzero"/></clipPath><clipPath id="d0018a0a51"><path d="M 187.5 71.617188 C 123.5 71.617188 71.617188 123.5 71.617188 187.5 C 71.617188 251.5 123.5 303.378906 187.5 303.378906 C 251.5 303.378906 303.378906 251.5 303.378906 187.5 C 303.378906 123.5 251.5 71.617188 187.5 71.617188 Z M 187.5 71.617188 " clip-rule="nonzero"/></clipPath><clipPath id="fc2a8962c0"><path d="M 109.941406 109.941406 L 265.058594 109.941406 L 265.058594 265.058594 L 109.941406 265.058594 Z M 109.941406 109.941406 " clip-rule="nonzero"/></clipPath><clipPath id="e739d68d41"><path d="M 187.5 109.941406 C 144.667969 109.941406 109.941406 144.667969 109.941406 187.5 C 109.941406 230.332031 144.667969 265.058594 187.5 265.058594 C 230.332031 265.058594 265.058594 230.332031 265.058594 187.5 C 265.058594 144.667969 230.332031 109.941406 187.5 109.941406 Z M 187.5 109.941406 " clip-rule="nonzero"/></clipPath><clipPath id="84f6e80925"><path d="M 0.941406 0.941406 L 156.058594 0.941406 L 156.058594 156.058594 L 0.941406 156.058594 Z M 0.941406 0.941406 " clip-rule="nonzero"/></clipPath><clipPath id="e6da22cb05"><path d="M 78.5 0.941406 C 35.667969 0.941406 0.941406 35.667969 0.941406 78.5 C 0.941406 121.332031 35.667969 156.058594 78.5 156.058594 C 121.332031 156.058594 156.058594 121.332031 156.058594 78.5 C 156.058594 35.667969 121.332031 0.941406 78.5 0.941406 Z M 78.5 0.941406 " clip-rule="nonzero"/></clipPath><clipPath id="96c6967f0c"><rect x="0" width="157" y="0" height="157"/></clipPath><clipPath id="6b96e546fc"><path d="M 134.683594 123.671875 L 240.433594 123.671875 L 240.433594 251.171875 L 134.683594 251.171875 Z M 134.683594 123.671875 " clip-rule="nonzero"/></clipPath><clipPath id="f2459b6935"><path d="M 109.941406 109.941406 L 265.191406 109.941406 L 265.191406 265.191406 L 109.941406 265.191406 Z M 109.941406 109.941406 " clip-rule="nonzero"/></clipPath><clipPath id="bdfcb603be"><rect x="0" width="195" y="0" height="73"/></clipPath></defs><g clip-path="url(#1097e7642a)"><g clip-path="url(#46b8e396ce)"><g transform="matrix(1, 0, 0, 1, 71, 71)"><g clip-path="url(#33e7a83aa0)"><g clip-path="url(#737ae198d0)"><g clip-path="url(#eedd2c07fa)"><path fill="#af4c0f" d="M 0.617188 0.617188 L 232.382812 0.617188 L 232.382812 232.382812 L 0.617188 232.382812 Z M 0.617188 0.617188 " fill-opacity="1" fill-rule="nonzero"/></g></g></g></g></g></g><g clip-path="url(#5400b4f540)"><g clip-path="url(#d0018a0a51)"><path stroke-linecap="butt" transform="matrix(0.75, 0, 0, 0.75, 71.618971, 71.618966)" fill="none" stroke-linejoin="miter" d="M 154.508049 -0.002372 C 69.17471 -0.002372 -0.002378 69.174716 -0.002378 154.508055 C -0.002378 239.841394 69.17471 309.013273 154.508049 309.013273 C 239.841388 309.013273 309.013267 239.841394 309.013267 154.508055 C 309.013267 69.174716 239.841388 -0.002372 154.508049 -0.002372 Z M 154.508049 -0.002372 " stroke="#ff66c4" stroke-width="6" stroke-opacity="1" stroke-miterlimit="4"/></g></g><g clip-path="url(#fc2a8962c0)"><g clip-path="url(#e739d68d41)"><g transform="matrix(1, 0, 0, 1, 109, 109)"><g clip-path="url(#96c6967f0c)"><g clip-path="url(#84f6e80925)"><g clip-path="url(#e6da22cb05)"><path fill="#ffc099" d="M 0.941406 0.941406 L 156.058594 0.941406 L 156.058594 156.058594 L 0.941406 156.058594 Z M 0.941406 0.941406 " fill-opacity="1" fill-rule="nonzero"/></g></g></g></g></g></g><g clip-path="url(#6b96e546fc)"><path fill="#af4c0f" d="M 190.503906 123.710938 C 191.265625 124.023438 191.867188 124.367188 192.480469 124.929688 C 194.414062 126.710938 196.355469 129.855469 197.632812 132.160156 C 198.757812 134.1875 198.414062 136.226562 199.308594 138.171875 C 200.882812 141.609375 205.949219 146.839844 206.140625 150.316406 L 205.75 150.621094 L 204.367188 150.355469 L 204.183594 150.671875 C 206.890625 155.078125 214.40625 159.277344 215.636719 163.675781 L 215.140625 163.96875 C 213.714844 163.921875 212.457031 163.207031 211.191406 162.609375 C 212.917969 165.664062 219.714844 172.191406 219.816406 174.808594 C 219.847656 175.589844 219.648438 175.679688 219.148438 176.226562 C 217.820312 176.632812 216.523438 176.222656 215.191406 175.953125 C 217.855469 178.59375 226.753906 186.503906 227.160156 189.804688 C 227.253906 190.542969 227.113281 190.628906 226.671875 191.167969 C 223.726562 192.167969 220.570312 190.730469 217.871094 189.609375 C 220.359375 192.59375 222.828125 195.679688 225.117188 198.820312 C 225.976562 200.003906 227.824219 202.066406 227.597656 203.515625 C 226.640625 203.789062 225.332031 203.019531 224.335938 202.890625 C 225.425781 205.039062 234.636719 208.542969 236.554688 211.945312 L 236.339844 212.453125 C 232.640625 213.125 228.246094 209.925781 225.222656 208.195312 C 227.28125 210.023438 230.933594 212.269531 232.011719 214.796875 C 231.382812 216.390625 227.878906 214.542969 226.660156 215.234375 C 228.339844 217.449219 232.5625 219.015625 233.304688 221.585938 L 232.960938 222.042969 C 231.238281 222.523438 228.996094 221.371094 227.417969 220.726562 C 230.125 222.4375 239.273438 227.707031 240.148438 230.632812 C 240.3125 231.179688 240.15625 231.226562 239.910156 231.703125 C 239.628906 231.824219 239.492188 231.898438 239.214844 231.96875 C 235.398438 232.921875 230.5625 228.152344 227.390625 226.664062 C 225.925781 225.976562 226.203125 227.636719 224.839844 228.121094 C 221.984375 227.757812 219.09375 225.386719 216.71875 223.839844 C 218.078125 225.671875 221.878906 228.960938 221.75 231.296875 L 221.1875 231.640625 C 217.6875 231.542969 214.722656 228.957031 211.355469 228.160156 L 210.960938 228.070312 C 210.832031 229.078125 210.761719 230.445312 210.296875 231.359375 C 209.914062 232.113281 209.457031 232.234375 208.699219 232.453125 C 206.171875 232.019531 203.765625 228.871094 202.003906 227.105469 C 201.800781 229.105469 201.648438 232.835938 200.019531 234.242188 C 199.625 234.585938 199.238281 234.6875 198.722656 234.640625 C 197.132812 234.496094 196.140625 232.738281 195.265625 231.570312 C 195.367188 235.640625 195.886719 239.710938 196.160156 243.777344 C 196.324219 246.183594 196.496094 247.871094 194.832031 249.78125 C 193.792969 250.339844 192.808594 250.75 191.632812 250.925781 C 189.257812 251.28125 185.488281 251.273438 183.539062 249.699219 C 182.804688 249.109375 182.535156 248.472656 182.371094 247.558594 C 181.847656 244.644531 182.34375 241.273438 182.273438 238.285156 C 182.191406 234.746094 181.742188 231.210938 181.308594 227.703125 C 179.691406 230.089844 177.800781 232.449219 175.636719 234.359375 C 174.339844 235.5 172.691406 236.738281 170.890625 236.632812 C 169.328125 235.300781 168.785156 236.105469 167.136719 235.484375 C 166.472656 235.234375 166.476562 235.03125 166.230469 234.417969 C 166.523438 232.761719 167.667969 231.136719 168.496094 229.675781 C 165.0625 231.988281 161.523438 234.859375 157.597656 236.242188 C 156.472656 236.636719 155.660156 236.84375 154.566406 236.328125 L 154.492188 235.53125 C 155.050781 234.195312 156.101562 233.378906 157.15625 232.425781 C 151.921875 232.621094 139.730469 235.367188 135.445312 233.210938 C 134.871094 232.921875 134.855469 232.777344 134.679688 232.207031 C 136.085938 230.28125 139.910156 229.488281 142.050781 228.355469 C 145.628906 226.457031 148.398438 223.710938 151.21875 220.875 C 149.652344 221.035156 147.460938 221.503906 145.929688 221.027344 C 145.097656 220.765625 144.902344 220.53125 144.527344 219.769531 C 144.988281 217.230469 148.40625 214.632812 150.207031 212.875 C 148.664062 213.167969 146.925781 213.585938 145.351562 213.464844 C 144.390625 213.390625 144.089844 213.246094 143.488281 212.53125 C 143.773438 210.015625 149.769531 205.378906 151.664062 203.335938 C 156.371094 198.269531 159.976562 192.445312 164.113281 186.941406 C 160.757812 189.238281 153.765625 193.21875 149.625 192.804688 C 148.855469 192.730469 148.785156 192.574219 148.332031 192.011719 C 148.410156 191.238281 148.402344 191.15625 148.992188 190.605469 C 151.386719 188.378906 154.320312 186.542969 156.886719 184.496094 C 159.769531 182.191406 162.300781 179.542969 164.839844 176.871094 C 163.066406 176.734375 161.261719 176.746094 159.484375 176.707031 C 162.320312 173.5625 165.109375 170.378906 167.855469 167.152344 C 166.453125 167.335938 164.328125 167.742188 163.027344 167.078125 C 162.351562 166.734375 162.390625 166.566406 162.210938 165.882812 C 165.984375 161.144531 171.550781 157.921875 175.503906 153.300781 L 175.828125 152.914062 L 173.894531 150.15625 C 174.039062 149.898438 174.1875 149.652344 174.339844 149.398438 C 176.257812 146.203125 179.246094 143.898438 181.269531 140.800781 C 184.785156 135.40625 187.355469 129.335938 190.503906 123.710938 Z M 189.6875 224.449219 C 189.003906 226.957031 188.539062 229.5 186.636719 231.40625 C 186.175781 231.539062 186.03125 231.714844 185.589844 231.441406 C 185.054688 231.109375 184.820312 230.691406 184.5 230.167969 C 183.660156 231.238281 184.328125 243.457031 184.546875 245.394531 C 184.644531 246.257812 184.777344 247.320312 185.519531 247.882812 C 185.769531 248.070312 186.183594 248.199219 186.46875 248.304688 C 188.96875 248.363281 191.335938 248.503906 193.71875 247.582031 C 193.628906 239.894531 194.882812 230.777344 189.6875 224.449219 Z M 205.203125 194.074219 C 205.738281 197.359375 206.265625 201.898438 209.097656 204.089844 C 209.679688 204.539062 210.320312 204.816406 211.007812 205.070312 C 210.140625 202 208.53125 195.953125 205.527344 194.238281 C 205.421875 194.179688 205.3125 194.128906 205.203125 194.074219 Z M 191.148438 178.234375 C 190.984375 181.011719 190.460938 185.085938 192.554688 187.320312 C 193.148438 187.953125 193.90625 188.074219 194.726562 188.195312 C 194.484375 185.375 193.832031 180.226562 191.355469 178.359375 C 191.292969 178.3125 191.21875 178.277344 191.148438 178.234375 Z M 181.855469 176.949219 C 180.164062 178.453125 178.984375 180.882812 178.871094 183.160156 C 178.851562 183.511719 179.066406 183.773438 179.222656 184.085938 L 179.945312 184.21875 L 181.308594 184.558594 C 182.230469 183.914062 182.609375 183.035156 182.777344 181.90625 C 182.988281 180.488281 182.851562 178.570312 182.242188 177.265625 Z M 207.230469 214.914062 C 207.90625 218.59375 208.636719 220.582031 211.820312 222.773438 C 212.355469 223.144531 212.890625 223.519531 213.472656 223.808594 C 212.714844 220.378906 210.953125 217.269531 207.9375 215.351562 C 207.703125 215.199219 207.46875 215.054688 207.230469 214.914062 Z M 170.773438 219.925781 C 168.632812 221.074219 164.289062 223.753906 163.5625 226.25 C 163.417969 226.742188 163.519531 226.84375 163.78125 227.261719 C 166.371094 226.445312 169.457031 223.792969 170.796875 221.417969 C 170.972656 221.105469 171.035156 220.8125 171.105469 220.46875 Z M 174.28125 192.773438 C 172.566406 195.042969 170.636719 198.207031 170.726562 201.160156 L 171.195312 201.582031 C 172.875 199.773438 175.363281 197.246094 175.160156 194.554688 C 175.113281 193.902344 174.753906 193.222656 174.28125 192.773438 Z M 203.402344 171.933594 C 203.859375 175.28125 204.3125 178.707031 207.207031 180.914062 C 207.644531 181.25 208.109375 181.546875 208.574219 181.839844 C 207.636719 178.582031 206.5 173.824219 203.402344 171.933594 Z M 183.210938 157.421875 C 181.976562 159.914062 180.988281 162.902344 181.855469 165.675781 C 182.015625 166.191406 182.234375 166.585938 182.636719 166.957031 C 183.773438 164.503906 185.027344 161.003906 183.917969 158.332031 C 183.765625 157.964844 183.507812 157.679688 183.210938 157.421875 Z M 183.515625 210.863281 C 183.246094 213.53125 182.527344 216.421875 183.910156 218.863281 C 184.539062 219.425781 185.101562 219.496094 185.902344 219.640625 C 185.890625 217.40625 185.753906 212.726562 183.890625 211.152344 C 183.769531 211.050781 183.640625 210.960938 183.515625 210.863281 Z M 164.824219 193.800781 C 163.242188 195.738281 161.5 197.808594 160.761719 200.246094 L 160.855469 200.925781 L 161.691406 200.960938 C 163.21875 199.742188 165.609375 197.90625 165.867188 195.835938 C 165.972656 195.007812 165.601562 194.636719 165.066406 194.039062 C 164.988281 193.957031 164.90625 193.878906 164.824219 193.800781 Z M 198.558594 172.34375 C 197.875 175.75 198.917969 178.617188 200.785156 181.46875 C 201.042969 181.859375 201.308594 182.238281 201.582031 182.609375 C 201.574219 179.4375 201.363281 175.0625 198.917969 172.675781 C 198.800781 172.5625 198.679688 172.457031 198.558594 172.34375 Z M 217.660156 213.210938 C 218.410156 216.792969 218.949219 219.441406 222.234375 221.625 C 222.453125 221.773438 222.683594 221.910156 222.910156 222.046875 C 222.394531 218.90625 220.574219 215.367188 217.972656 213.433594 C 217.871094 213.359375 217.765625 213.285156 217.660156 213.210938 Z M 190.117188 194.386719 C 189.777344 197.117188 189.003906 201.53125 190.730469 203.914062 L 191.453125 204.03125 C 191.851562 201.460938 192.390625 197.179688 190.6875 194.921875 C 190.445312 194.597656 190.402344 194.589844 190.117188 194.386719 Z M 161.628906 209.335938 C 159.082031 210.679688 156.492188 212.355469 155.195312 215.039062 L 155.40625 215.574219 L 155.902344 215.710938 C 157.746094 214.398438 161.539062 212.324219 162.351562 210.203125 C 162.097656 209.6875 162.15625 209.636719 161.628906 209.335938 Z M 191.570312 158.75 C 191.15625 161.449219 190.785156 164.675781 192.457031 167.0625 C 192.691406 167.398438 192.984375 167.6875 193.28125 167.964844 C 193.773438 165.152344 193.972656 162.0625 192.273438 159.578125 C 192.0625 159.269531 191.820312 159.015625 191.570312 158.75 Z M 183.523438 192.453125 C 182.5 195.105469 181.359375 197.855469 181.105469 200.710938 L 181.429688 201.105469 L 181.867188 200.988281 C 183.097656 199.121094 184.9375 196.75 184.546875 194.367188 C 184.433594 193.664062 183.976562 192.984375 183.523438 192.453125 Z M 178.652344 156.804688 C 177.042969 158.921875 174.964844 161.324219 175.367188 164.183594 C 175.429688 164.628906 175.574219 164.992188 175.761719 165.398438 C 177.238281 163.167969 179.453125 160.046875 179.027344 157.207031 Z M 162.71875 218.226562 C 159.78125 219.445312 157.640625 221.21875 155.621094 223.65625 L 155.570312 224.160156 L 156.15625 224.292969 C 158.761719 222.804688 161.183594 221.296875 163.214844 219.0625 L 163.273438 218.511719 Z M 212.707031 188.769531 C 212.78125 191.171875 212.898438 193.847656 214.804688 195.59375 C 215.328125 196.074219 216.027344 196.480469 216.683594 196.757812 C 216.09375 193.796875 215.320312 190.617188 212.707031 188.769531 Z M 196.777344 152.109375 C 196.777344 155.558594 198.183594 157.992188 200.566406 160.425781 C 200.65625 160.519531 200.75 160.609375 200.84375 160.703125 C 200.609375 157.601562 199.738281 154.601562 197.292969 152.492188 C 197.089844 152.316406 197.015625 152.273438 196.777344 152.109375 Z M 188.308594 145.210938 C 187.855469 147.40625 187.371094 149.746094 187.75 151.988281 L 188.195312 152.527344 L 188.691406 152.527344 C 189.582031 150.628906 190.109375 148.707031 189.296875 146.640625 C 189.0625 146.054688 188.808594 145.609375 188.308594 145.210938 Z M 202.84375 219.105469 C 202.613281 220.695312 202.421875 222.011719 203.464844 223.398438 C 204.296875 224.5 205.589844 225.476562 206.652344 226.359375 C 205.953125 224.140625 204.910156 220.445312 202.84375 219.105469 Z M 188.519531 134.710938 C 187.308594 136.214844 185.339844 138.691406 185.457031 140.746094 C 185.472656 141 185.523438 141.113281 185.59375 141.371094 C 186.621094 141.09375 187.039062 141.058594 187.636719 140.085938 C 188.359375 138.910156 189.023438 136.492188 188.648438 135.117188 C 188.609375 134.980469 188.5625 134.84375 188.519531 134.710938 Z M 192.316406 135.355469 C 192.332031 137.265625 192.507812 138.996094 192.886719 140.867188 C 193.734375 141.402344 194.578125 141.988281 195.453125 142.480469 C 194.726562 139.902344 194.234375 137.355469 192.316406 135.355469 Z M 192.316406 135.355469 " fill-opacity="1" fill-rule="nonzero"/></g><g clip-path="url(#f2459b6935)"><path fill="#ff5050" d="M 187.503906 111.957031 C 145.851562 111.957031 111.96875 145.84375 111.96875 187.496094 C 111.96875 229.144531 145.851562 263.03125 187.503906 263.03125 C 229.15625 263.03125 263.039062 229.144531 263.039062 187.496094 C 263.039062 145.84375 229.15625 111.957031 187.503906 111.957031 Z M 187.503906 265.046875 C 144.742188 265.046875 109.949219 230.257812 109.949219 187.496094 C 109.949219 144.734375 144.742188 109.941406 187.503906 109.941406 C 230.265625 109.941406 265.054688 144.734375 265.054688 187.496094 C 265.054688 230.257812 230.265625 265.046875 187.503906 265.046875 " fill-opacity="1" fill-rule="nonzero"/></g><g fill="#ffc099" fill-opacity="1"><g transform="translate(92.443386, 220.650215)"><g><path d="M 1.625 3.5 L 10.453125 -4.703125 L 11.625 -2.1875 L 8.9375 0.28125 L 6.046875 2.984375 L 10 2.578125 L 13.671875 2.21875 L 14.71875 4.46875 L 12.078125 7.03125 L 9.171875 9.859375 L 13.15625 9.359375 L 16.78125 8.890625 L 17.9375 11.390625 L 5.984375 12.859375 L 4.90625 10.546875 L 10.546875 5.0625 L 2.703125 5.828125 Z M 1.625 3.5 "/></g></g></g><g fill="#ffc099" fill-opacity="1"><g transform="translate(102.231622, 240.076365)"><g><path d="M 0.78125 1.125 L 10.1875 -5.4375 L 14.515625 0.75 L 12.71875 2 L 9.875 -2.0625 L 7.921875 -0.703125 L 10.5 2.984375 L 8.71875 4.234375 L 6.140625 0.546875 L 4.078125 1.984375 L 7.015625 6.1875 L 5.203125 7.453125 Z M 0.78125 1.125 "/></g></g></g><g fill="#ffc099" fill-opacity="1"><g transform="translate(110.114911, 250.795913)"><g/></g></g><g fill="#ffc099" fill-opacity="1"><g transform="translate(114.840691, 256.390722)"><g><path d="M 4.734375 4.65625 C 3.890625 3.875 3.304688 2.992188 2.984375 2.015625 C 2.671875 1.035156 2.628906 0.046875 2.859375 -0.953125 C 3.085938 -1.960938 3.597656 -2.898438 4.390625 -3.765625 C 5.179688 -4.617188 6.066406 -5.203125 7.046875 -5.515625 C 8.023438 -5.835938 9.015625 -5.882812 10.015625 -5.65625 C 11.015625 -5.4375 11.941406 -4.9375 12.796875 -4.15625 C 13.503906 -3.5 14.03125 -2.757812 14.375 -1.9375 C 14.71875 -1.125 14.863281 -0.28125 14.8125 0.59375 C 14.769531 1.46875 14.515625 2.320312 14.046875 3.15625 L 12.0625 1.34375 C 12.332031 0.71875 12.382812 0.0820312 12.21875 -0.5625 C 12.0625 -1.21875 11.710938 -1.789062 11.171875 -2.28125 C 10.703125 -2.71875 10.179688 -3 9.609375 -3.125 C 9.035156 -3.25 8.460938 -3.210938 7.890625 -3.015625 C 7.328125 -2.816406 6.816406 -2.46875 6.359375 -1.96875 C 5.890625 -1.457031 5.582031 -0.910156 5.4375 -0.328125 C 5.289062 0.253906 5.300781 0.820312 5.46875 1.375 C 5.644531 1.925781 5.972656 2.421875 6.453125 2.859375 C 7.003906 3.367188 7.617188 3.671875 8.296875 3.765625 C 8.972656 3.859375 9.628906 3.753906 10.265625 3.453125 L 12.25 5.265625 C 11.476562 5.816406 10.648438 6.15625 9.765625 6.28125 C 8.890625 6.414062 8.015625 6.347656 7.140625 6.078125 C 6.273438 5.804688 5.472656 5.332031 4.734375 4.65625 Z M 4.734375 4.65625 "/></g></g></g><g fill="#ffc099" fill-opacity="1"><g transform="translate(127.509704, 267.534478)"><g><path d="M 0.125 0.078125 L 10.21875 -7 L 12.375 -5.578125 L 9.875 6.484375 L 7.546875 4.96875 L 8 2.890625 L 4.1875 0.375 L 2.453125 1.609375 Z M 5.875 -0.96875 L 8.578125 0.8125 L 9.53125 -3.59375 Z M 5.875 -0.96875 "/></g></g></g><g fill="#ffc099" fill-opacity="1"><g transform="translate(140.676687, 275.846581)"><g><path d="M 1.25 0.578125 L 6.03125 -9.84375 L 10.484375 -7.796875 C 11.285156 -7.429688 11.910156 -6.972656 12.359375 -6.421875 C 12.804688 -5.867188 13.066406 -5.25 13.140625 -4.5625 C 13.222656 -3.875 13.09375 -3.15625 12.75 -2.40625 C 12.394531 -1.644531 11.914062 -1.066406 11.3125 -0.671875 C 10.71875 -0.285156 10.039062 -0.101562 9.28125 -0.125 L 9.78125 4.5 L 7.046875 3.234375 L 6.6875 -0.875 L 5.125 -1.59375 L 3.625 1.65625 Z M 6 -3.578125 L 7.796875 -2.75 C 8.390625 -2.488281 8.90625 -2.421875 9.34375 -2.546875 C 9.78125 -2.679688 10.113281 -3 10.34375 -3.5 C 10.582031 -4.007812 10.609375 -4.472656 10.421875 -4.890625 C 10.234375 -5.316406 9.84375 -5.660156 9.25 -5.921875 L 7.453125 -6.75 Z M 6 -3.578125 "/></g></g></g><g fill="#ffc099" fill-opacity="1"><g transform="translate(154.518816, 281.866191)"><g><path d="M 1.3125 0.390625 L 4.59375 -10.59375 L 11.828125 -8.4375 L 11.203125 -6.34375 L 6.453125 -7.75 L 5.765625 -5.484375 L 10.078125 -4.203125 L 9.453125 -2.09375 L 5.140625 -3.375 L 4.4375 -0.984375 L 9.359375 0.46875 L 8.71875 2.59375 Z M 1.3125 0.390625 "/></g></g></g><g fill="#ffc099" fill-opacity="1"><g transform="translate(167.358118, 285.356805)"><g/></g></g><g fill="#ffc099" fill-opacity="1"><g transform="translate(174.513234, 286.757766)"><g><path d="M 0.140625 0.015625 L 5.5625 -11.078125 L 8.125 -10.875 L 11.78125 0.90625 L 9 0.6875 L 8.390625 -1.34375 L 3.84375 -1.703125 L 2.921875 0.21875 Z M 4.671875 -3.671875 L 7.90625 -3.4375 L 6.609375 -7.75 Z M 4.671875 -3.671875 "/></g></g></g><g fill="#ffc099" fill-opacity="1"><g transform="translate(190.052099, 287.659768)"><g><path d="M 1.375 -0.09375 L 0.53125 -11.53125 L 5.640625 -11.90625 C 6.816406 -12 7.765625 -11.789062 8.484375 -11.28125 C 9.210938 -10.769531 9.613281 -10.050781 9.6875 -9.125 C 9.726562 -8.59375 9.644531 -8.097656 9.4375 -7.640625 C 9.226562 -7.191406 8.910156 -6.828125 8.484375 -6.546875 C 9.046875 -6.347656 9.492188 -6.019531 9.828125 -5.5625 C 10.171875 -5.113281 10.363281 -4.585938 10.40625 -3.984375 C 10.457031 -3.347656 10.332031 -2.773438 10.03125 -2.265625 C 9.738281 -1.753906 9.3125 -1.34375 8.75 -1.03125 C 8.195312 -0.726562 7.53125 -0.550781 6.75 -0.5 Z M 3.78125 -2.34375 L 6.203125 -2.53125 C 6.710938 -2.5625 7.101562 -2.707031 7.375 -2.96875 C 7.644531 -3.226562 7.765625 -3.570312 7.734375 -4 C 7.703125 -4.4375 7.535156 -4.765625 7.234375 -4.984375 C 6.929688 -5.203125 6.523438 -5.296875 6.015625 -5.265625 L 3.59375 -5.078125 Z M 3.4375 -7.0625 L 5.59375 -7.234375 C 6.101562 -7.265625 6.484375 -7.40625 6.734375 -7.65625 C 6.984375 -7.90625 7.09375 -8.238281 7.0625 -8.65625 C 7.03125 -9.070312 6.875 -9.378906 6.59375 -9.578125 C 6.3125 -9.773438 5.914062 -9.859375 5.40625 -9.828125 L 3.25 -9.65625 Z M 3.4375 -7.0625 "/></g></g></g><g fill="#ffc099" fill-opacity="1"><g transform="translate(204.93884, 286.374772)"><g><path d="M 6.671875 -1.328125 C 5.515625 -1.054688 4.429688 -1.0625 3.421875 -1.34375 C 2.410156 -1.632812 1.546875 -2.15625 0.828125 -2.90625 C 0.117188 -3.65625 -0.363281 -4.597656 -0.625 -5.734375 C -0.894531 -6.867188 -0.878906 -7.929688 -0.578125 -8.921875 C -0.273438 -9.921875 0.257812 -10.773438 1.03125 -11.484375 C 1.8125 -12.191406 2.78125 -12.679688 3.9375 -12.953125 C 5.113281 -13.234375 6.207031 -13.226562 7.21875 -12.9375 C 8.238281 -12.65625 9.101562 -12.132812 9.8125 -11.375 C 10.53125 -10.625 11.023438 -9.679688 11.296875 -8.546875 C 11.554688 -7.410156 11.535156 -6.347656 11.234375 -5.359375 C 10.929688 -4.367188 10.390625 -3.519531 9.609375 -2.8125 C 8.828125 -2.101562 7.847656 -1.609375 6.671875 -1.328125 Z M 1.953125 -6.34375 C 2.109375 -5.675781 2.390625 -5.117188 2.796875 -4.671875 C 3.210938 -4.234375 3.703125 -3.929688 4.265625 -3.765625 C 4.835938 -3.597656 5.453125 -3.59375 6.109375 -3.75 C 6.785156 -3.90625 7.34375 -4.1875 7.78125 -4.59375 C 8.21875 -5 8.515625 -5.488281 8.671875 -6.0625 C 8.835938 -6.644531 8.84375 -7.269531 8.6875 -7.9375 C 8.53125 -8.601562 8.25 -9.160156 7.84375 -9.609375 C 7.4375 -10.054688 6.945312 -10.363281 6.375 -10.53125 C 5.800781 -10.695312 5.175781 -10.703125 4.5 -10.546875 C 3.84375 -10.390625 3.296875 -10.109375 2.859375 -9.703125 C 2.429688 -9.296875 2.132812 -8.800781 1.96875 -8.21875 C 1.800781 -7.632812 1.796875 -7.007812 1.953125 -6.34375 Z M 1.953125 -6.34375 "/></g></g></g><g fill="#ffc099" fill-opacity="1"><g transform="translate(221.701817, 282.050825)"><g><path d="M 5.6875 -2.109375 C 4.769531 -1.734375 3.898438 -1.59375 3.078125 -1.6875 C 2.265625 -1.78125 1.539062 -2.09375 0.90625 -2.625 C 0.269531 -3.15625 -0.242188 -3.894531 -0.640625 -4.84375 L -3.234375 -11.078125 L -0.828125 -12.078125 L 1.6875 -6.015625 C 2.375 -4.378906 3.390625 -3.84375 4.734375 -4.40625 C 6.085938 -4.96875 6.421875 -6.066406 5.734375 -7.703125 L 3.21875 -13.765625 L 5.625 -14.765625 L 8.21875 -8.53125 C 8.613281 -7.582031 8.769531 -6.691406 8.6875 -5.859375 C 8.613281 -5.035156 8.328125 -4.300781 7.828125 -3.65625 C 7.328125 -3.007812 6.613281 -2.492188 5.6875 -2.109375 Z M 5.6875 -2.109375 "/></g></g></g><g fill="#ffc099" fill-opacity="1"><g transform="translate(236.091318, 275.718041)"><g><path d="M 3.53125 -2.125 L -1.140625 -9.859375 L -4.25 -7.984375 L -5.5 -10.0625 L 2.953125 -15.171875 L 4.203125 -13.09375 L 1.09375 -11.21875 L 5.765625 -3.484375 Z M 3.53125 -2.125 "/></g></g></g><g fill="#ffc099" fill-opacity="1"><g transform="translate(248.105952, 268.038723)"><g/></g></g><g fill="#ffc099" fill-opacity="1"><g transform="translate(253.911932, 263.655651)"><g><path d="M 3.171875 -3 L 0.40625 -5.921875 L -7.765625 -8.421875 L -5.609375 -10.46875 L -2.765625 -9.53125 L -0.5 -8.796875 L -1.109375 -11.09375 L -1.890625 -13.984375 L 0.25 -16.015625 L 2.296875 -7.734375 L 5.078125 -4.796875 Z M 3.171875 -3 "/></g></g></g><g fill="#ffc099" fill-opacity="1"><g transform="translate(264.366581, 253.240904)"><g><path d="M 1.5625 -1.5625 C 1.269531 -1.21875 0.925781 -1.023438 0.53125 -0.984375 C 0.132812 -0.953125 -0.222656 -1.078125 -0.546875 -1.359375 C -0.878906 -1.628906 -1.0625 -1.960938 -1.09375 -2.359375 C -1.125 -2.765625 -0.992188 -3.140625 -0.703125 -3.484375 C -0.410156 -3.816406 -0.0664062 -4 0.328125 -4.03125 C 0.722656 -4.070312 1.085938 -3.957031 1.421875 -3.6875 C 1.742188 -3.40625 1.921875 -3.0625 1.953125 -2.65625 C 1.984375 -2.257812 1.851562 -1.894531 1.5625 -1.5625 Z M 1.5625 -1.5625 "/></g></g></g><g fill="#ffc099" fill-opacity="1"><g transform="translate(269.363639, 247.284551)"><g><path d="M 0.78125 -1.140625 L -8.703125 -7.59375 L -4.453125 -13.828125 L -2.640625 -12.609375 L -5.4375 -8.515625 L -3.46875 -7.171875 L -0.9375 -10.890625 L 0.859375 -9.65625 L -1.671875 -5.9375 L 0.40625 -4.53125 L 3.296875 -8.765625 L 5.125 -7.515625 Z M 0.78125 -1.140625 "/></g></g></g><g fill="#ffc099" fill-opacity="1"><g transform="translate(276.597108, 236.102454)"><g><path d="M 1.21875 -1.84375 C 1 -1.445312 0.695312 -1.191406 0.3125 -1.078125 C -0.0703125 -0.960938 -0.453125 -1.003906 -0.828125 -1.203125 C -1.203125 -1.410156 -1.445312 -1.703125 -1.5625 -2.078125 C -1.675781 -2.460938 -1.625 -2.851562 -1.40625 -3.25 C -1.195312 -3.644531 -0.898438 -3.898438 -0.515625 -4.015625 C -0.128906 -4.140625 0.25 -4.097656 0.625 -3.890625 C 1 -3.691406 1.242188 -3.398438 1.359375 -3.015625 C 1.472656 -2.628906 1.425781 -2.238281 1.21875 -1.84375 Z M 1.21875 -1.84375 "/></g></g></g><g fill="#ffc099" fill-opacity="1"><g transform="translate(280.59675, 229.174428)"><g><path d="M 1.3125 -3.625 L -10.734375 -4.0625 L -9.78125 -6.6875 L -6.125 -6.515625 L -2.171875 -6.375 L -5.265625 -8.90625 L -8.125 -11.234375 L -7.28125 -13.5625 L -3.578125 -13.53125 L 0.46875 -13.46875 L -2.703125 -15.9375 L -5.609375 -18.15625 L -4.671875 -20.75 L 4.84375 -13.328125 L 3.96875 -10.9375 L -3.890625 -11.015625 L 2.1875 -6.03125 Z M 1.3125 -3.625 "/></g></g></g><g fill="#ffc099" fill-opacity="1"><g transform="translate(287.265615, 208.614282)"><g><path d="M 0.625 -2.125 C 0.539062 -1.6875 0.332031 -1.351562 0 -1.125 C -0.332031 -0.894531 -0.707031 -0.828125 -1.125 -0.921875 C -1.539062 -1.003906 -1.859375 -1.210938 -2.078125 -1.546875 C -2.296875 -1.890625 -2.363281 -2.28125 -2.28125 -2.71875 C -2.1875 -3.15625 -1.972656 -3.484375 -1.640625 -3.703125 C -1.304688 -3.921875 -0.929688 -3.988281 -0.515625 -3.90625 C -0.0976562 -3.8125 0.21875 -3.597656 0.4375 -3.265625 C 0.65625 -2.941406 0.71875 -2.5625 0.625 -2.125 Z M 0.625 -2.125 "/></g></g></g><g transform="matrix(1, 0, 0, 1, 90, 78)"><g clip-path="url(#bdfcb603be)"><g fill="#ffc099" fill-opacity="1"><g transform="translate(17.469052, 67.333295)"><g><path d="M 5.859375 -8.53125 L 1.203125 -11.71875 L -1.90625 -7.1875 L 2.75 -4 L 0.953125 -1.390625 L -10.59375 -9.3125 L -8.796875 -11.921875 L -4.359375 -8.890625 L -1.25 -13.421875 L -5.6875 -16.453125 L -3.890625 -19.0625 L 7.65625 -11.140625 Z M 5.859375 -8.53125 "/></g></g></g><g fill="#ffc099" fill-opacity="1"><g transform="translate(27.735842, 52.883737)"><g><path d="M 3.953125 -3.921875 L -9.71875 -10.0625 L -7.3125 -12.46875 L -2.46875 -10.25 L 1.859375 -8.28125 L -2.296875 -17.4375 L 0.125 -19.84375 L 6.171875 -6.109375 Z M 3.953125 -3.921875 "/></g></g></g><g fill="#ffc099" fill-opacity="1"><g transform="translate(39.83254, 41.228459)"><g><path d="M 1.390625 -0.953125 L -6.5 -12.515625 L -1.5625 -15.875 C -0.675781 -16.476562 0.195312 -16.84375 1.0625 -16.96875 C 1.925781 -17.09375 2.734375 -16.976562 3.484375 -16.625 C 4.242188 -16.28125 4.90625 -15.695312 5.46875 -14.875 C 6.050781 -14.019531 6.359375 -13.15625 6.390625 -12.28125 C 6.421875 -11.40625 6.195312 -10.570312 5.71875 -9.78125 L 10.859375 -7.40625 L 7.8125 -5.328125 L 3.296875 -7.515625 L 1.5625 -6.328125 L 4.015625 -2.734375 Z M 0 -8.53125 L 2 -9.890625 C 2.65625 -10.335938 3.050781 -10.832031 3.1875 -11.375 C 3.332031 -11.914062 3.21875 -12.46875 2.84375 -13.03125 C 2.445312 -13.59375 1.972656 -13.90625 1.421875 -13.96875 C 0.867188 -14.03125 0.265625 -13.835938 -0.390625 -13.390625 L -2.390625 -12.03125 Z M 0 -8.53125 "/></g></g></g><g fill="#ffc099" fill-opacity="1"><g transform="translate(53.759114, 32.061798)"><g><path d="M 6.09375 -2.453125 C 5.019531 -1.960938 4.019531 -1.71875 3.09375 -1.71875 C 2.164062 -1.726562 1.34375 -1.960938 0.625 -2.421875 C -0.0820312 -2.878906 -0.632812 -3.546875 -1.03125 -4.421875 L 1.8125 -5.703125 C 2.082031 -5.085938 2.503906 -4.707031 3.078125 -4.5625 C 3.648438 -4.425781 4.289062 -4.515625 5 -4.828125 C 5.601562 -5.109375 6.03125 -5.441406 6.28125 -5.828125 C 6.53125 -6.222656 6.5625 -6.628906 6.375 -7.046875 C 6.164062 -7.503906 5.785156 -7.773438 5.234375 -7.859375 C 4.679688 -7.953125 3.90625 -7.890625 2.90625 -7.671875 C 1.28125 -7.304688 -0.0351562 -7.285156 -1.046875 -7.609375 C -2.054688 -7.929688 -2.796875 -8.609375 -3.265625 -9.640625 C -3.796875 -10.816406 -3.785156 -11.929688 -3.234375 -12.984375 C -2.691406 -14.046875 -1.679688 -14.910156 -0.203125 -15.578125 C 0.796875 -16.023438 1.742188 -16.242188 2.640625 -16.234375 C 3.535156 -16.222656 4.328125 -15.992188 5.015625 -15.546875 C 5.710938 -15.109375 6.257812 -14.457031 6.65625 -13.59375 L 3.859375 -12.328125 C 3.597656 -12.898438 3.203125 -13.269531 2.671875 -13.4375 C 2.148438 -13.601562 1.554688 -13.535156 0.890625 -13.234375 C 0.285156 -12.960938 -0.132812 -12.625 -0.375 -12.21875 C -0.625 -11.820312 -0.65625 -11.410156 -0.46875 -10.984375 C -0.289062 -10.597656 0.0507812 -10.359375 0.5625 -10.265625 C 1.070312 -10.179688 1.863281 -10.238281 2.9375 -10.4375 C 4.695312 -10.78125 6.070312 -10.789062 7.0625 -10.46875 C 8.0625 -10.15625 8.785156 -9.5 9.234375 -8.5 C 9.785156 -7.289062 9.78125 -6.148438 9.21875 -5.078125 C 8.65625 -4.015625 7.613281 -3.140625 6.09375 -2.453125 Z M 6.09375 -2.453125 "/></g></g></g><g fill="#ffc099" fill-opacity="1"><g transform="translate(67.831186, 25.831049)"><g><path d="M 1.640625 -0.40625 L -1.71875 -14 L 3.640625 -15.328125 C 5.078125 -15.679688 6.40625 -15.703125 7.625 -15.390625 C 8.84375 -15.085938 9.875 -14.5 10.71875 -13.625 C 11.570312 -12.75 12.160156 -11.640625 12.484375 -10.296875 C 12.828125 -8.941406 12.828125 -7.679688 12.484375 -6.515625 C 12.140625 -5.359375 11.5 -4.359375 10.5625 -3.515625 C 9.625 -2.679688 8.4375 -2.085938 7 -1.734375 Z M 4.015625 -4.015625 L 6.25 -4.5625 C 7.050781 -4.757812 7.71875 -5.097656 8.25 -5.578125 C 8.78125 -6.054688 9.140625 -6.632812 9.328125 -7.3125 C 9.523438 -7.988281 9.523438 -8.722656 9.328125 -9.515625 C 9.128906 -10.316406 8.785156 -10.96875 8.296875 -11.46875 C 7.804688 -11.976562 7.210938 -12.320312 6.515625 -12.5 C 5.816406 -12.675781 5.066406 -12.660156 4.265625 -12.453125 L 2.0625 -11.921875 Z M 4.015625 -4.015625 "/></g></g></g><g fill="#ffc099" fill-opacity="1"><g transform="translate(85.631397, 22.016593)"><g/></g></g><g fill="#ffc099" fill-opacity="1"><g transform="translate(93.175419, 21.190394)"><g><path d="M 1.6875 0.03125 L 1.984375 -13.96875 L 11.171875 -13.78125 L 11.109375 -11.09375 L 5.078125 -11.21875 L 5.015625 -8.328125 L 10.515625 -8.203125 L 10.46875 -5.546875 L 4.96875 -5.671875 L 4.90625 -2.609375 L 11.15625 -2.46875 L 11.09375 0.234375 Z M 1.6875 0.03125 "/></g></g></g><g fill="#ffc099" fill-opacity="1"><g transform="translate(107.866127, 21.546013)"><g><path d="M 7.859375 1.90625 C 6.484375 1.625 5.320312 1.066406 4.375 0.234375 C 3.425781 -0.585938 2.765625 -1.597656 2.390625 -2.796875 C 2.015625 -3.992188 1.96875 -5.289062 2.25 -6.6875 C 2.539062 -8.082031 3.09375 -9.253906 3.90625 -10.203125 C 4.726562 -11.148438 5.734375 -11.816406 6.921875 -12.203125 C 8.109375 -12.585938 9.394531 -12.640625 10.78125 -12.359375 C 11.945312 -12.117188 12.960938 -11.675781 13.828125 -11.03125 C 14.703125 -10.394531 15.390625 -9.601562 15.890625 -8.65625 C 16.390625 -7.707031 16.65625 -6.664062 16.6875 -5.53125 L 13.46875 -6.1875 C 13.375 -6.988281 13.035156 -7.675781 12.453125 -8.25 C 11.878906 -8.832031 11.15625 -9.210938 10.28125 -9.390625 C 9.507812 -9.546875 8.78125 -9.507812 8.09375 -9.28125 C 7.414062 -9.0625 6.84375 -8.671875 6.375 -8.109375 C 5.90625 -7.546875 5.585938 -6.851562 5.421875 -6.03125 C 5.253906 -5.195312 5.273438 -4.429688 5.484375 -3.734375 C 5.691406 -3.046875 6.0625 -2.460938 6.59375 -1.984375 C 7.125 -1.503906 7.769531 -1.1875 8.53125 -1.03125 C 9.445312 -0.84375 10.289062 -0.910156 11.0625 -1.234375 C 11.832031 -1.566406 12.441406 -2.097656 12.890625 -2.828125 L 16.109375 -2.15625 C 15.648438 -1.09375 15 -0.21875 14.15625 0.46875 C 13.320312 1.15625 12.363281 1.628906 11.28125 1.890625 C 10.207031 2.148438 9.066406 2.15625 7.859375 1.90625 Z M 7.859375 1.90625 "/></g></g></g><g fill="#ffc099" fill-opacity="1"><g transform="translate(126.024103, 25.502276)"><g><path d="M 7.515625 3.5625 C 6.191406 2.988281 5.132812 2.191406 4.34375 1.171875 C 3.550781 0.148438 3.078125 -0.984375 2.921875 -2.234375 C 2.773438 -3.492188 2.988281 -4.773438 3.5625 -6.078125 C 4.125 -7.390625 4.910156 -8.421875 5.921875 -9.171875 C 6.941406 -9.929688 8.09375 -10.367188 9.375 -10.484375 C 10.65625 -10.609375 11.957031 -10.382812 13.28125 -9.8125 C 14.632812 -9.226562 15.703125 -8.429688 16.484375 -7.421875 C 17.265625 -6.410156 17.734375 -5.273438 17.890625 -4.015625 C 18.046875 -2.753906 17.84375 -1.46875 17.28125 -0.15625 C 16.707031 1.144531 15.910156 2.171875 14.890625 2.921875 C 13.867188 3.671875 12.722656 4.109375 11.453125 4.234375 C 10.179688 4.367188 8.867188 4.144531 7.515625 3.5625 Z M 6.546875 -4.796875 C 6.203125 -4.023438 6.070312 -3.269531 6.15625 -2.53125 C 6.238281 -1.800781 6.492188 -1.144531 6.921875 -0.5625 C 7.359375 0.0078125 7.953125 0.457031 8.703125 0.78125 C 9.484375 1.113281 10.238281 1.238281 10.96875 1.15625 C 11.695312 1.082031 12.347656 0.820312 12.921875 0.375 C 13.492188 -0.0703125 13.953125 -0.679688 14.296875 -1.453125 C 14.628906 -2.234375 14.757812 -2.988281 14.6875 -3.71875 C 14.613281 -4.445312 14.359375 -5.097656 13.921875 -5.671875 C 13.484375 -6.253906 12.875 -6.710938 12.09375 -7.046875 C 11.34375 -7.367188 10.601562 -7.488281 9.875 -7.40625 C 9.15625 -7.332031 8.503906 -7.070312 7.921875 -6.625 C 7.335938 -6.1875 6.878906 -5.578125 6.546875 -4.796875 Z M 6.546875 -4.796875 "/></g></g></g><g fill="#ffc099" fill-opacity="1"><g transform="translate(143.455006, 33.46344)"><g><path d="M 1.390625 0.953125 L 9.28125 -10.609375 L 13.796875 -7.53125 C 14.742188 -6.894531 15.441406 -6.171875 15.890625 -5.359375 C 16.335938 -4.554688 16.535156 -3.710938 16.484375 -2.828125 C 16.441406 -1.953125 16.128906 -1.085938 15.546875 -0.234375 C 14.972656 0.597656 14.28125 1.203125 13.46875 1.578125 C 12.664062 1.953125 11.804688 2.070312 10.890625 1.9375 C 9.984375 1.8125 9.054688 1.429688 8.109375 0.796875 L 6.21875 -0.5 L 4.015625 2.734375 Z M 7.734375 -2.75 L 9.4375 -1.59375 C 10.125 -1.132812 10.765625 -0.9375 11.359375 -1 C 11.953125 -1.070312 12.457031 -1.414062 12.875 -2.03125 C 13.28125 -2.632812 13.410156 -3.226562 13.265625 -3.8125 C 13.117188 -4.394531 12.703125 -4.914062 12.015625 -5.375 L 10.3125 -6.53125 Z M 7.734375 -2.75 "/></g></g></g><g fill="#ffc099" fill-opacity="1"><g transform="translate(156.469995, 42.607127)"><g><path d="M 3.625 3.515625 L 11.296875 -4.390625 L 8.09375 -7.5 L 10.171875 -9.640625 L 18.828125 -1.21875 L 16.75 0.921875 L 13.5625 -2.171875 L 5.890625 5.734375 Z M 3.625 3.515625 "/></g></g></g><g fill="#ffc099" fill-opacity="1"><g transform="translate(167.7394, 53.665965)"><g><path d="M 4.515625 6.96875 C 3.691406 5.78125 3.210938 4.546875 3.078125 3.265625 C 2.941406 1.992188 3.140625 0.785156 3.671875 -0.359375 C 4.203125 -1.503906 5.050781 -2.484375 6.21875 -3.296875 C 7.394531 -4.117188 8.613281 -4.582031 9.875 -4.6875 C 11.132812 -4.789062 12.34375 -4.554688 13.5 -3.984375 C 14.65625 -3.421875 15.644531 -2.546875 16.46875 -1.359375 C 17.3125 -0.148438 17.796875 1.085938 17.921875 2.359375 C 18.054688 3.628906 17.859375 4.835938 17.328125 5.984375 C 16.804688 7.140625 15.957031 8.128906 14.78125 8.953125 C 13.613281 9.765625 12.394531 10.21875 11.125 10.3125 C 9.863281 10.414062 8.65625 10.1875 7.5 9.625 C 6.351562 9.0625 5.359375 8.175781 4.515625 6.96875 Z M 8.078125 -0.640625 C 7.390625 -0.160156 6.882812 0.40625 6.5625 1.0625 C 6.25 1.726562 6.125 2.421875 6.1875 3.140625 C 6.257812 3.867188 6.53125 4.570312 7 5.25 C 7.488281 5.945312 8.0625 6.453125 8.71875 6.765625 C 9.375 7.078125 10.066406 7.191406 10.796875 7.109375 C 11.523438 7.035156 12.234375 6.757812 12.921875 6.28125 C 13.617188 5.789062 14.128906 5.21875 14.453125 4.5625 C 14.773438 3.914062 14.898438 3.226562 14.828125 2.5 C 14.753906 1.769531 14.472656 1.054688 13.984375 0.359375 C 13.515625 -0.316406 12.953125 -0.804688 12.296875 -1.109375 C 11.648438 -1.421875 10.957031 -1.539062 10.21875 -1.46875 C 9.488281 -1.40625 8.773438 -1.128906 8.078125 -0.640625 Z M 8.078125 -0.640625 "/></g></g></g></g></g></svg>